<svg width="130" height="59" viewBox="0 0 130 59" fill="none" xmlns="http://www.w3.org/2000/svg">
<g clip-path="url(#clip0_47_479)">
<path d="M44.0034 11.8134C42.8684 11.7982 41.7422 12.014 40.6932 12.4478C39.6443 12.8816 38.6946 13.5243 37.9018 14.3367V4.07715H33.454V22.4483C33.4671 24.5365 34.0986 26.5739 35.2687 28.3035C36.4388 30.0331 38.095 31.3773 40.0283 32.1665C41.9617 32.9556 44.0855 33.1543 46.1317 32.7375C48.1778 32.3207 50.0547 31.3071 51.5253 29.8245C52.9959 28.342 53.9944 26.457 54.3946 24.4076C54.7949 22.3581 54.579 20.236 53.7743 18.309C52.9696 16.3821 51.6121 14.7368 49.8731 13.5807C48.1341 12.4247 46.0916 11.8097 44.0034 11.8134ZM50.181 22.4483C50.181 26.0598 47.5246 28.7827 44.0034 28.7827C42.7444 28.8139 41.5046 28.469 40.4425 27.7922C39.3804 27.1154 38.5441 26.1374 38.0406 24.983C37.537 23.8286 37.389 22.5504 37.6154 21.3115C37.8418 20.0726 38.4324 18.9293 39.3117 18.0276C40.191 17.126 41.3191 16.507 42.552 16.2496C43.7848 15.9922 45.0664 16.1081 46.233 16.5826C47.3996 17.0571 48.3983 17.8686 49.1016 18.9134C49.8048 19.9582 50.1806 21.1889 50.181 22.4483Z" fill="#C5C5C8"/>
<path d="M71.0611 23.2183C71.0611 26.8584 69.4502 28.7829 66.4042 28.7829C63.3582 28.7829 61.7473 26.8298 61.7473 22.976V12.1367H57.3422V22.976C57.3422 29.4007 60.6448 33.0835 66.4042 33.0835C68.0875 33.1195 69.7273 32.5475 71.0231 31.4725V33.3496C71.0231 36.0915 69.2126 37.864 66.4042 37.864C65.5998 37.8887 64.8048 37.686 64.1105 37.2792C63.4161 36.8723 62.8507 36.2778 62.4791 35.564L62.4078 35.4499H57.5275L57.6463 35.7683C59.1242 39.7742 62.3983 42.1692 66.4137 42.1692C71.6694 42.1692 75.4805 38.2536 75.4805 32.8649V12.1367H71.0706L71.0611 23.2183Z" fill="#C5C5C8"/>
<path d="M88.9381 32.8835H89.1852V28.6067H88.9714C86.163 28.3644 84.8562 26.5824 84.8562 22.9994V16.4417H89.1852V12.1364H84.8562V4.92285H80.4463V12.1364H77.4858V16.4417H80.4558V23.0374C80.4843 29.1532 83.5018 32.6554 88.9381 32.8835Z" fill="#C5C5C8"/>
<path d="M101.498 11.8135C95.7477 11.8135 91.0717 16.6035 91.0717 22.4912C91.0706 22.968 91.1023 23.4443 91.1668 23.9168L91.1953 24.1259H111.933L111.961 23.9215C112.051 23.3064 112.092 22.6851 112.085 22.0635C111.871 15.4345 106.473 11.8135 101.498 11.8135ZM95.838 20.4383C96.1952 19.184 96.9547 18.0818 97.9997 17.3013C99.0446 16.5208 100.317 16.1054 101.621 16.1188C102.907 16.1389 104.154 16.5685 105.179 17.3453C106.205 18.1221 106.956 19.2055 107.324 20.4383H95.838Z" fill="#C5C5C8"/>
<path d="M111.225 26.5779L111.363 26.25H106.416L106.349 26.3498C105.789 27.0982 105.062 27.7058 104.226 28.1243C103.39 28.5428 102.468 28.7606 101.533 28.7606C100.598 28.7606 99.6763 28.5428 98.8403 28.1243C98.0043 27.7058 97.2773 27.0982 96.7171 26.3498L96.6458 26.2548H91.6467L91.7798 26.5826C93.3384 30.4603 97.197 32.9693 101.602 32.9693C103.66 32.9812 105.674 32.3795 107.388 31.241C109.102 30.1026 110.438 28.4791 111.225 26.5779Z" fill="#C5C5C8"/>
<path d="M130 26.7202C129.929 22.011 125.899 21.1271 122.658 20.419C120.349 19.9153 118.529 19.5162 118.529 18.0145C118.529 16.7077 119.831 15.7954 121.698 15.7954C123.395 15.7954 125.115 16.5842 125.115 18.0953V18.3329H129.358V18.0953C129.358 14.3745 126.46 11.9653 121.789 11.8132C117.65 11.6706 114.28 14.2747 114.119 17.7247C113.905 22.3626 117.887 23.218 121.085 23.9022C123.495 24.4202 125.581 24.8526 125.595 26.6394C125.595 28.1363 124.212 29.0629 121.979 29.0629C119.669 29.0629 118.049 28.0032 118.049 26.4873V26.2402H114.043H113.805V26.7154C113.957 31.0777 118.082 33.0736 121.884 33.0736C124.678 33.0736 126.987 32.2942 128.394 30.8782C128.931 30.3314 129.351 29.6804 129.627 28.9653C129.903 28.2502 130.03 27.4862 130 26.7202Z" fill="#C5C5C8"/>
<path d="M3.98214 25.2756C3.97215 24.34 4.26928 23.4269 4.82799 22.6763C5.38957 21.9342 6.17652 21.394 7.07093 21.1367L20.1056 17.3351C21.314 16.9952 22.3765 16.2661 23.1282 15.2609C23.88 14.2556 24.2791 13.0304 24.2636 11.7753V8.27781C24.2687 6.74313 23.6645 5.26917 22.5838 4.17954C21.5031 3.08991 20.0341 2.47368 18.4994 2.46613H8.26367C7.50516 2.45318 6.75226 2.59815 6.05279 2.89184C5.35333 3.18554 4.72262 3.62152 4.20073 4.17209C3.65098 4.70061 3.21582 5.33658 2.92234 6.04045C2.62886 6.74431 2.48332 7.50103 2.49477 8.26355V10.1263H3.98214V8.2588C3.97492 7.68887 4.08414 7.12347 4.30313 6.59725C4.52211 6.07103 4.84625 5.59506 5.25567 5.19852C5.64563 4.79127 6.11514 4.4685 6.63503 4.25024C7.15493 4.03199 7.71411 3.92289 8.27792 3.92974H18.5137C19.0778 3.92089 19.6376 4.02907 20.1578 4.24745C20.678 4.46583 21.1472 4.78966 21.536 5.19852C21.9445 5.59401 22.2671 6.06944 22.4838 6.59514C22.7005 7.12085 22.8065 7.68555 22.7952 8.25404V11.7563C22.8187 12.6947 22.5183 13.6126 21.9446 14.3556C21.4047 15.1201 20.6092 15.6662 19.7017 15.8952L6.69076 19.6968C5.47906 20.0335 4.41401 20.7641 3.66375 21.7734C2.90257 22.7794 2.49647 24.0094 2.50902 25.2709V30.4981H26.7726V29.0345H3.98214V25.2756Z" fill="#C5C5C8"/>
<path d="M1.48737 25.2901C1.47972 23.8119 1.959 22.3724 2.85119 21.1939C3.71518 19.9998 4.96344 19.1391 6.38667 18.7561L19.4261 14.9545C20.1239 14.7693 20.7385 14.3533 21.1699 13.7744C21.6013 13.1955 21.8241 12.4876 21.8021 11.7659V8.27798C21.8138 7.83809 21.7356 7.40046 21.5721 6.99189C21.4087 6.58333 21.1636 6.21245 20.8517 5.90199C20.5497 5.59471 20.1885 5.35201 19.7898 5.18863C19.3912 5.02525 18.9635 4.94461 18.5327 4.95159H8.26369C7.83244 4.94615 7.4045 5.02749 7.00531 5.19076C6.60611 5.35403 6.24382 5.5959 5.93998 5.90199C5.3185 6.52352 4.96828 7.36577 4.96583 8.24471V10.1075H6.44845V8.25422C6.44998 8.0121 6.50043 7.77279 6.59679 7.55067C6.69315 7.32856 6.83342 7.12821 7.00918 6.96168C7.16651 6.78676 7.36055 6.64878 7.57742 6.55759C7.79429 6.46641 8.02864 6.42427 8.26369 6.43421H18.4995C18.7379 6.42893 18.9747 6.47355 19.1949 6.56521C19.415 6.65686 19.6135 6.79353 19.7778 6.96643C19.9502 7.13297 20.0865 7.33328 20.1781 7.55486C20.2696 7.77643 20.3145 8.01451 20.31 8.25422V11.7564C20.3235 12.1564 20.1993 12.5489 19.9583 12.8684C19.7186 13.1838 19.3863 13.4164 19.0079 13.5337L5.96849 17.2972C4.24701 17.8038 2.73557 18.8536 1.65986 20.2899C0.584145 21.7262 0.00187489 23.4719 0 25.2663V32.9788H26.7584V31.5104H1.48737V25.2901Z" fill="#C5C5C8"/>
<path d="M18.4995 4.99689e-06H8.26369C6.07357 0.00502536 3.97458 0.877277 2.42592 2.42593C0.877264 3.97459 0.00502037 6.07358 0 8.26371V10.1265H1.48737V8.26371C1.47314 7.36694 1.64194 6.47668 1.98347 5.64737C2.325 4.81806 2.83207 4.06711 3.4737 3.44044C4.09534 2.80234 4.841 2.29821 5.66476 1.95906C6.48853 1.61991 7.37298 1.45292 8.26369 1.46837H18.4995C19.3893 1.45413 20.2727 1.62169 21.0955 1.96079C21.9184 2.29989 22.6633 2.80338 23.2847 3.44044C23.927 4.06883 24.4348 4.82132 24.7771 5.65214C25.1194 6.48296 25.2891 7.37474 25.2758 8.27321V11.7659C25.2743 13.237 24.7953 14.6679 23.911 15.8436C23.0267 17.0193 21.7847 17.8762 20.3718 18.2856L7.36082 22.0872C6.66838 22.2671 6.0561 22.6736 5.62159 23.242C5.20094 23.8265 4.97185 24.5271 4.96583 25.2473V27.9654H26.7584V26.5066H6.44845V25.2806C6.43786 24.8802 6.56352 24.4882 6.80484 24.1686C7.0373 23.8506 7.37342 23.6238 7.75524 23.5271L20.7899 19.7255C22.5103 19.2217 24.0213 18.1746 25.0971 16.7407C26.173 15.3068 26.7558 13.5633 26.7584 11.7707V8.30647C26.7722 7.21437 26.5636 6.13088 26.1453 5.12195C25.7271 4.11303 25.1079 3.19977 24.3254 2.43777C23.5717 1.65591 22.6661 1.03635 21.6642 0.617141C20.6624 0.197934 19.5854 -0.0120779 18.4995 4.99689e-06Z" fill="#C5C5C8"/>
<path d="M5.42674 51.8203C5.82263 51.6946 6.16843 51.4465 6.41436 51.1118C6.6603 50.777 6.79367 50.3729 6.79531 49.9575C6.79531 48.6317 5.79741 47.7764 4.25301 47.7764H0.822083V56.387H4.27201C6.11103 56.387 7.21349 55.4698 7.21349 53.9254C7.22235 53.4173 7.04587 52.9234 6.71703 52.536C6.3882 52.1486 5.92952 51.8941 5.42674 51.8203ZM3.66376 51.3926H2.23816V48.9739H3.92037C4.84226 48.9739 5.34596 49.3873 5.34596 50.1381C5.34596 50.8889 4.78048 51.3926 3.66376 51.3926ZM5.74989 53.8447C5.74989 54.7285 5.14637 55.1942 4.00115 55.1942H2.25242V52.4998H3.92513C5.13688 52.4998 5.73087 52.975 5.73087 53.8447H5.74989Z" fill="#C5C5C8"/>
<path d="M14.6409 55.0136L13.125 50.1238V50.0858H11.6234L13.871 56.3394C13.871 56.3632 13.871 56.4107 13.8378 56.463L13.7665 56.7053C13.5812 57.3088 13.2913 57.5464 12.7306 57.5464C12.5971 57.5508 12.4634 57.5428 12.3314 57.5227H12.2601V58.6774H12.3076C12.4828 58.6967 12.6589 58.7062 12.8351 58.7059C14.1467 58.7059 14.7739 58.1974 15.3014 56.6863L17.6109 50.0811H16.1853L14.6409 55.0136Z" fill="#C5C5C8"/>
<path d="M24.0688 48.6128H22.6765V50.0812H21.7831V51.2026H22.6765V54.7001C22.6765 55.9261 23.1992 56.4298 24.4727 56.4298C24.7134 56.4348 24.9539 56.414 25.1903 56.368H25.233V55.2418H25.1617C25.0279 55.2603 24.8929 55.2698 24.7578 55.2703C24.2826 55.2703 24.0688 55.0565 24.0688 54.5528V51.1979H25.2378V50.0764H24.0688V48.6128Z" fill="#C5C5C8"/>
<path d="M32.8742 49.9673C31.1017 49.9673 29.9612 51.2598 29.9612 53.2652C29.9612 55.2705 31.097 56.506 32.9265 56.506C34.3521 56.506 35.4545 55.6887 35.6351 54.5197V54.4532H34.3188V54.4912C34.2171 54.7645 34.0287 54.997 33.7825 55.1531C33.5362 55.3093 33.2456 55.3806 32.955 55.356C32.0046 55.356 31.3536 54.6765 31.3536 53.6263H35.7064V53.1511C35.7064 51.2028 34.5944 49.9673 32.8742 49.9673ZM31.3916 52.6046C31.3966 52.2075 31.5572 51.8283 31.8389 51.5483C32.1206 51.2684 32.5009 51.1102 32.898 51.1078C33.0913 51.1075 33.2827 51.1466 33.4605 51.2227C33.6383 51.2987 33.7987 51.4102 33.9321 51.5502C34.0654 51.6902 34.1689 51.8559 34.2362 52.0372C34.3035 52.2184 34.3332 52.4115 34.3236 52.6046H31.3916Z" fill="#C5C5C8"/>
<path d="M48.9122 48.6128H47.5483V50.0812H46.6502V51.2026H47.5483V54.7001C47.5483 55.9261 48.0663 56.4298 49.3398 56.4298C49.5805 56.435 49.8211 56.4143 50.0574 56.368H50.1049V55.2418H50.0336C49.8998 55.2603 49.7648 55.2698 49.6297 55.2703C49.1545 55.2703 48.9359 55.0565 48.9359 54.5528V51.1979H50.1097V50.0764H48.9359L48.9122 48.6128Z" fill="#C5C5C8"/>
<path d="M58.4209 49.9718C58.0416 49.9532 57.6645 50.038 57.3297 50.2171C56.9949 50.3962 56.715 50.6629 56.5201 50.9887V47.7764H55.1515V56.387H56.5391V52.7517C56.5391 51.8013 57.095 51.1883 57.9647 51.1883C58.8343 51.1883 59.2525 51.6635 59.2525 52.5854V56.387H60.6448V52.3383C60.6448 50.8794 59.7894 49.9718 58.4209 49.9718Z" fill="#C5C5C8"/>
<path d="M68.457 49.9673C66.6893 49.9673 65.5441 51.2598 65.5441 53.2652C65.5441 55.2705 66.6798 56.506 68.5093 56.506C69.9349 56.506 71.0421 55.6887 71.2227 54.5197V54.4532H69.9111V54.4912C69.8086 54.7649 69.6193 54.9975 69.3722 55.1536C69.1251 55.3098 68.8338 55.3808 68.5426 55.356C67.5922 55.356 66.9459 54.6765 66.9459 53.6263H71.3082V53.1511C71.3082 51.2028 70.182 49.9673 68.457 49.9673ZM66.9507 52.6046C66.9568 52.2079 67.1178 51.8293 67.3993 51.5497C67.6807 51.27 68.0603 51.1114 68.457 51.1078C68.6504 51.1075 68.8418 51.1466 69.0196 51.2227C69.1973 51.2987 69.3578 51.4102 69.4911 51.5502C69.6245 51.6902 69.728 51.8559 69.7953 52.0372C69.8626 52.2184 69.8923 52.4115 69.8826 52.6046H66.9507Z" fill="#C5C5C8"/>
<path d="M90.2259 54.3341L88.4582 47.7764H87.1466L85.3836 54.3341L83.8535 47.8239L83.844 47.7764H82.3519L84.6613 56.387H85.9966L87.8024 50.0383L89.6129 56.387H90.9387L93.2577 47.7764H91.7655L90.2259 54.3341Z" fill="#C5C5C8"/>
<path d="M100.771 49.9673C98.9601 49.9673 97.7863 51.2503 97.7863 53.2319C97.7863 55.2135 98.9601 56.506 100.771 56.506C102.581 56.506 103.755 55.223 103.755 53.2319C103.755 51.2408 102.6 49.9673 100.771 49.9673ZM102.343 53.2319C102.343 54.5529 101.759 55.337 100.771 55.337C99.7822 55.337 99.1977 54.5529 99.1977 53.2319C99.1977 51.9108 99.7869 51.1315 100.771 51.1315C101.754 51.1315 102.362 51.9203 102.362 53.2319H102.343Z" fill="#C5C5C8"/>
<path d="M111.486 49.9767C111.181 49.9728 110.881 50.0615 110.626 50.2312C110.372 50.4008 110.175 50.6434 110.061 50.9271V50.0812H108.735V56.3871H110.118V52.6235C110.096 52.448 110.113 52.2699 110.167 52.1015C110.221 51.9331 110.311 51.7785 110.431 51.6484C110.551 51.5182 110.698 51.4157 110.861 51.3477C111.024 51.2798 111.2 51.2482 111.377 51.255C111.562 51.2477 111.746 51.2702 111.923 51.3215L112.004 51.3548V50.0385H111.957C111.803 50.0003 111.645 49.9796 111.486 49.9767Z" fill="#C5C5C8"/>
<path d="M118.153 47.7764H116.771V56.387H118.153V47.7764Z" fill="#C5C5C8"/>
<path d="M127.676 50.984C127.473 50.6664 127.191 50.4068 126.858 50.2302C126.525 50.0537 126.152 49.9663 125.775 49.9765C124.174 49.9765 123.143 51.2548 123.143 53.2316C123.143 55.2085 124.179 56.4915 125.79 56.4915C126.173 56.5044 126.553 56.4158 126.891 56.2347C127.229 56.0536 127.513 55.7865 127.714 55.4603V56.4107H129.064V47.7764H127.676V50.984ZM127.676 53.2316C127.676 54.4862 127.063 55.2988 126.113 55.2988C125.162 55.2988 124.545 54.5052 124.545 53.2316C124.545 51.9581 125.143 51.1693 126.113 51.1693C127.082 51.1693 127.686 51.9961 127.686 53.2316H127.676Z" fill="#C5C5C8"/>
</g>
<defs>
<clipPath id="clip0_47_479">
<rect width="130" height="58.6917" fill="white"/>
</clipPath>
</defs>
</svg>
