<svg width="190" height="44" viewBox="0 0 190 44" fill="none" xmlns="http://www.w3.org/2000/svg">
<g clip-path="url(#clip0_47_466)">
<path d="M18.4044 8.2307C18.421 9.12722 18.2666 10.019 17.949 10.8614C17.6585 11.5983 17.2311 12.2775 16.6878 12.8655C16.1495 13.4468 15.5163 13.9388 14.8135 14.3221C14.0745 14.7283 13.2912 15.054 12.4779 15.2931C11.6496 15.5515 10.7998 15.7404 9.93793 15.8576C9.0807 15.9738 8.21679 16.0379 7.35126 16.0495V23.174H0C0 20.8368 0 18.509 0 16.1907C0 13.8761 1.07019e-06 11.5332 0.0467128 9.17912C0.0467128 7.93149 0.0759077 6.68951 0.0467128 5.44189C0.017518 4.19426 0.0467125 2.94098 0.128458 1.67642C2.79842 0.89763 5.57259 0.503875 8.3614 0.507842C9.1789 0.510039 9.99497 0.574215 10.8021 0.699783C11.5999 0.826272 12.3824 1.03054 13.1377 1.30947C13.8682 1.5739 14.564 1.92067 15.2105 2.34259C15.8406 2.74561 16.4003 3.24296 16.8688 3.81602C17.3398 4.40654 17.7104 5.06592 17.9665 5.76931C18.2569 6.55956 18.405 7.39208 18.4044 8.2307ZM11.3977 8.75007C11.4144 8.46315 11.3673 8.17612 11.2595 7.90831C11.1517 7.6405 10.9858 7.39813 10.7729 7.19759C10.3293 6.81088 9.74638 6.60814 9.14967 6.63305C8.91889 6.63573 8.68862 6.6546 8.46067 6.68951C8.23474 6.7219 8.01062 6.76524 7.78919 6.81936L7.5965 11.2905C7.73745 11.3125 7.87997 11.3238 8.02275 11.3244H8.45483C8.8292 11.3249 9.20076 11.2619 9.55255 11.1381C9.89755 11.0197 10.2164 10.8397 10.4926 10.6074C10.7658 10.3833 10.9901 10.1089 11.1524 9.80011C11.311 9.4719 11.387 9.1121 11.3743 8.75007H11.3977Z" fill="#E2E4EE"/>
<path d="M34.7302 0.880859C34.664 1.84057 34.6056 2.78147 34.555 3.70354C34.5025 4.64632 34.4324 5.59475 34.3507 6.55446L27.6358 6.88754L27.4782 8.81826H32.1961L31.8457 13.566L27.0986 13.7184L26.941 15.9766H33.6558C33.5916 17.1057 33.5215 18.2347 33.4573 19.3243C33.3931 20.4138 33.3288 21.5429 33.2763 22.655L19.6189 22.9599L20.1269 0.880859H34.7302Z" fill="#E2E4EE"/>
<path d="M57.4554 0.99927L56.3168 21.7629L48.0197 22.5025L43.5821 11.3811L42.8872 22.717H35.7578L36.3417 0.99927L44.2594 0.632324L49.7422 11.6577L49.9932 1.24767L57.4554 0.99927Z" fill="#E2E4EE"/>
<path d="M76.1285 1.06152L75.9708 7.5537L71.2529 7.74L70.0501 22.2712L63.3645 22.6099L63.3995 8.09001L58.6758 8.33841L58.8685 1.11233L76.1285 1.06152Z" fill="#E2E4EE"/>
<path d="M121.229 8.19145C121.243 9.08832 121.087 9.98013 120.767 10.8222C120.478 11.5611 120.05 12.2423 119.506 12.8319C118.966 13.4098 118.333 13.8998 117.632 14.2828C116.902 14.6871 116.129 15.0128 115.325 15.2538C114.497 15.5122 113.647 15.7011 112.785 15.8183C111.93 15.9343 111.068 15.9984 110.205 16.0103V23.146H102.824C102.824 20.8088 102.824 18.4811 102.824 16.1627C102.824 13.8443 102.84 11.5072 102.871 9.15117C102.871 7.90354 102.9 6.66156 102.871 5.41394C102.842 4.16631 102.871 2.91303 102.953 1.64847C105.622 0.867847 108.397 0.475902 111.186 0.485525C112.003 0.485808 112.819 0.548091 113.626 0.671814C114.424 0.797577 115.207 1.00188 115.962 1.28152C116.693 1.54483 117.389 1.89165 118.035 2.31462C118.665 2.71764 119.225 3.21501 119.693 3.78807C120.164 4.37859 120.535 5.03796 120.791 5.74136C121.083 6.52728 121.231 7.35636 121.229 8.19145ZM114.193 8.72211C114.209 8.4352 114.162 8.14815 114.054 7.88034C113.947 7.61253 113.781 7.37018 113.568 7.16964C113.123 6.7845 112.541 6.582 111.945 6.6051C111.714 6.60581 111.484 6.62279 111.256 6.65591C111.03 6.6883 110.806 6.73164 110.584 6.78576L110.392 11.2569C110.532 11.2789 110.675 11.2902 110.818 11.2908H111.25C111.624 11.2918 111.996 11.2287 112.348 11.1045C112.695 10.9868 113.016 10.8067 113.293 10.5738C113.565 10.3495 113.787 10.075 113.947 9.76651C114.115 9.44243 114.199 9.08422 114.193 8.72211Z" fill="#E2E4EE"/>
<path d="M137.549 0.818359C137.482 1.77807 137.424 2.71897 137.373 3.64104C137.321 4.58382 137.257 5.53223 137.169 6.49195L130.454 6.82504L130.297 8.75575H135.014L134.67 13.5035L129.917 13.6559L129.759 15.9141H136.474C136.408 17.0431 136.342 18.1591 136.276 19.2618C136.21 20.3645 136.149 21.4748 136.095 22.5925L122.443 22.8974L122.945 0.818359H137.549Z" fill="#E2E4EE"/>
<path d="M179.764 0.621048L171.59 10.8166L180.243 21.921L171.222 22.9146L166.405 16.2982L166.154 23.2195L159.561 23.4679L160.069 0.00570495L167.45 0.406521L166.866 7.32775L171.777 -0.0112305L179.764 0.621048Z" fill="#E2E4EE"/>
<path d="M147.346 0.254182L137.858 22.0792C137.828 22.1467 137.816 22.2203 137.823 22.2935C137.83 22.3666 137.855 22.437 137.896 22.4984C137.938 22.5599 137.995 22.6104 138.061 22.6456C138.128 22.6808 138.203 22.6996 138.278 22.7002H157.261C157.337 22.6996 157.411 22.6808 157.478 22.6456C157.545 22.6104 157.601 22.5599 157.643 22.4984C157.685 22.437 157.71 22.3666 157.717 22.2935C157.723 22.2203 157.711 22.1467 157.681 22.0792L148.193 0.254182C148.157 0.174333 148.098 0.106338 148.023 0.0585718C147.948 0.0108054 147.86 -0.0146484 147.77 -0.0146484C147.68 -0.0146484 147.592 0.0108054 147.516 0.0585718C147.441 0.106338 147.382 0.174333 147.346 0.254182Z" fill="#E2E4EE"/>
<path d="M83.1994 0.253894L73.7053 22.0789C73.6753 22.1469 73.6632 22.221 73.6702 22.2946C73.6772 22.3682 73.703 22.4389 73.7452 22.5005C73.7875 22.5621 73.8449 22.6125 73.9123 22.6473C73.9798 22.6821 74.0551 22.7002 74.1315 22.6999H93.1082C93.1846 22.7002 93.2599 22.6821 93.3274 22.6473C93.3948 22.6125 93.4522 22.5621 93.4945 22.5005C93.5368 22.4389 93.5625 22.3682 93.5695 22.2946C93.5765 22.221 93.5644 22.1469 93.5344 22.0789L84.0403 0.253894C84.0057 0.173647 83.9473 0.105093 83.8725 0.0568712C83.7977 0.008649 83.7098 -0.0170898 83.6199 -0.0170898C83.5299 -0.0170898 83.442 0.008649 83.3672 0.0568712C83.2924 0.105093 83.234 0.173647 83.1994 0.253894Z" fill="#E2E4EE"/>
<path d="M123.582 35.114C123.469 34.9732 123.328 34.856 123.167 34.7696C122.988 34.678 122.786 34.6332 122.583 34.6398C122.383 34.6381 122.184 34.6765 121.999 34.7527C121.833 34.8281 121.684 34.9357 121.561 35.0688C121.433 35.2018 121.336 35.3596 121.275 35.5317C121.211 35.7135 121.18 35.9043 121.182 36.0963C121.18 36.2873 121.208 36.4775 121.264 36.6608C121.316 36.8448 121.401 37.0186 121.515 37.1746C121.623 37.325 121.765 37.4503 121.929 37.5415C122.106 37.6408 122.309 37.6897 122.513 37.6826C122.71 37.6857 122.905 37.6462 123.083 37.5671C123.262 37.488 123.421 37.3712 123.547 37.2254C123.672 37.0804 123.767 36.9137 123.827 36.7342C123.89 36.5523 123.921 36.3615 123.92 36.1697C123.924 35.9781 123.895 35.7872 123.833 35.6051C123.782 35.4275 123.697 35.2608 123.582 35.114Z" fill="#E2E4EE"/>
<path d="M181.925 28.481H0.414566L0.507992 44.0001L190 42.3065L181.925 28.481ZM17.3184 38.7725C17.107 39.209 16.7978 39.5947 16.4133 39.9015C16.0132 40.2121 15.5554 40.4458 15.0645 40.5903C14.5285 40.745 13.9715 40.8211 13.4121 40.8161C13.1587 40.8133 12.9062 40.7849 12.6589 40.7314C12.3903 40.6674 12.1159 40.594 11.8356 40.5112C11.5553 40.4209 11.2867 40.3306 11.0298 40.229C10.7729 40.1273 10.5452 40.0314 10.3408 39.941L10.6503 37.1635C11.0592 37.3998 11.5019 37.5767 11.964 37.6885C12.4275 37.8043 12.9042 37.8631 13.3829 37.8636C13.4705 37.8636 13.5756 37.8636 13.7041 37.8636C13.8248 37.8595 13.9445 37.8405 14.0602 37.8071C14.1677 37.7771 14.2673 37.7251 14.3522 37.6547C14.3918 37.6176 14.4228 37.5727 14.4429 37.523C14.4631 37.4733 14.472 37.42 14.469 37.3668C14.4718 37.286 14.4426 37.2072 14.3872 37.1466C14.3277 37.0824 14.2538 37.0321 14.1712 36.9998C14.0741 36.9581 13.9721 36.9278 13.8675 36.9095C13.7594 36.8889 13.6503 36.8738 13.5406 36.8643H13.2428H13.0209C12.6464 36.8695 12.2748 36.8003 11.929 36.6611C11.6107 36.5323 11.3242 36.34 11.0882 36.0966C10.8462 35.8522 10.6593 35.5619 10.5393 35.2441C10.388 34.8397 10.322 34.41 10.345 33.9805C10.3681 33.551 10.4798 33.1303 10.6736 32.7432C10.8871 32.3286 11.1897 31.9629 11.5612 31.6706C11.9394 31.3719 12.3707 31.1424 12.8341 30.9932C13.3114 30.835 13.8126 30.7549 14.3172 30.756C14.5449 30.756 14.7784 30.756 15.0178 30.7843C15.2606 30.7963 15.5024 30.8227 15.7419 30.8633C15.9813 30.9085 16.2148 30.9593 16.4425 31.0214C16.6654 31.0817 16.8823 31.161 17.0907 31.2585L16.8279 33.9908C16.5 33.8876 16.1667 33.8009 15.8294 33.7311C15.4971 33.6647 15.1587 33.6307 14.8193 33.6295H14.5857H14.2821C14.1829 33.6295 14.0719 33.6295 13.9668 33.6803C13.8683 33.7002 13.7724 33.7305 13.6807 33.7707C13.603 33.8056 13.535 33.8579 13.4822 33.9231C13.4299 33.9848 13.4048 34.0638 13.4121 34.1433C13.4113 34.1891 13.4208 34.2345 13.44 34.2764C13.4591 34.3184 13.4875 34.3557 13.5231 34.386C13.6072 34.4486 13.7021 34.4964 13.8033 34.5271C13.927 34.5626 14.0542 34.5853 14.1829 34.5949C14.317 34.6033 14.4516 34.6033 14.5857 34.5949H14.9653H15.2514C15.5978 34.613 15.938 34.6914 16.2557 34.8263C16.5406 34.9482 16.7969 35.125 17.0089 35.3457C17.2229 35.5672 17.3843 35.8311 17.4819 36.1191C17.5951 36.4349 17.6505 36.7673 17.6454 37.1014C17.669 37.6752 17.5572 38.2467 17.3184 38.7725ZM39.5065 33.9683L37.4278 34.0473L36.8964 40.4378L33.977 40.5846V34.1941L31.8983 34.3013L31.9859 31.123H39.5765L39.5065 33.9683ZM62.5237 34.3521C62.4886 34.7473 62.4361 35.1651 62.3602 35.5885C62.2843 36.0119 62.1908 36.4466 62.0741 36.8869C61.9552 37.3175 61.807 37.7399 61.6303 38.1515C61.4578 38.5442 61.2507 38.922 61.0114 39.2805C60.7875 39.6214 60.5164 39.931 60.2056 40.2007C59.9051 40.4639 59.5593 40.6741 59.1838 40.8217C58.785 40.977 58.3582 41.0538 57.9284 41.0476C57.4468 41.0571 56.9682 40.9727 56.5212 40.7992C56.1373 40.6388 55.7901 40.4067 55.4994 40.1161C55.2122 39.8224 54.9774 39.4848 54.8046 39.1168C54.6217 38.7306 54.4789 38.3278 54.3783 37.9144C54.278 37.4847 54.2078 37.049 54.1681 36.6103C54.1272 36.1699 54.1097 35.7466 54.1097 35.3344C54.1097 34.7078 54.1389 34.0755 54.2031 33.4489C54.2674 32.8222 54.3608 32.2013 54.4834 31.5746L57.7474 31.6932C57.6189 32.3988 57.5138 33.1102 57.4204 33.8215C57.3319 34.5334 57.287 35.2497 57.2861 35.9667C57.2861 36.0458 57.2861 36.1587 57.2861 36.3111C57.2861 36.4635 57.2861 36.6272 57.3211 36.8135C57.3562 36.9998 57.3679 37.1918 57.4029 37.3781C57.4336 37.5591 57.4825 37.7368 57.5489 37.9087C57.598 38.0528 57.6709 38.1881 57.7649 38.3095C57.8 38.3558 57.8456 38.3937 57.8983 38.4201C57.9509 38.4466 58.0092 38.4609 58.0685 38.462C58.1396 38.46 58.2093 38.4422 58.2721 38.4098C58.3349 38.3775 58.3892 38.3316 58.4305 38.2757C58.5552 38.1296 58.652 37.9633 58.7167 37.7845C58.8032 37.5504 58.8735 37.3108 58.9269 37.0676C58.9853 36.7966 59.0378 36.503 59.0787 36.2264C59.1195 35.9498 59.1546 35.6619 59.1838 35.3514C59.213 35.0409 59.2305 34.7868 59.2422 34.5328C59.2538 34.2787 59.2714 34.0586 59.2772 33.8666C59.283 33.6747 59.2772 33.5336 59.2772 33.4376C59.2772 33.0876 59.2772 32.7376 59.2772 32.3876C59.2772 32.0432 59.2772 31.6932 59.2246 31.3488H62.4886C62.5412 31.9698 62.5704 32.5964 62.5704 33.2344C62.5645 33.5618 62.547 33.9513 62.5178 34.3521H62.5237ZM85.0504 37.0958C84.7536 38.0486 84.1373 38.8787 83.2987 39.4556C82.8785 39.7449 82.4212 39.9802 81.9382 40.1556C81.4295 40.3399 80.9035 40.4761 80.3676 40.562C79.8016 40.6482 79.2296 40.6916 78.6567 40.6919C78.4349 40.6919 78.2247 40.6919 78.0145 40.6919L77.3722 40.6411L77.5648 31.6085C78.0801 31.449 78.61 31.3374 79.1472 31.2754C79.6817 31.2099 80.22 31.1778 80.7588 31.1794C81.3825 31.1731 82.0026 31.2705 82.5922 31.4674C83.1276 31.6462 83.6188 31.9307 84.0344 32.3029C84.4452 32.676 84.7678 33.1305 84.9803 33.6352C85.2126 34.2047 85.3277 34.8126 85.319 35.4248C85.3149 35.9919 85.2223 36.5553 85.0446 37.0958H85.0504ZM102.988 40.4378L100.068 40.5846V31.4448L103.776 31.2585L102.988 40.4378ZM126.875 37.1692C126.785 37.5415 126.644 37.9004 126.455 38.2362C126.275 38.5676 126.051 38.8751 125.789 39.1507C125.528 39.4254 125.229 39.6647 124.901 39.862C124.382 40.1678 123.803 40.3677 123.2 40.4492C122.598 40.5308 121.985 40.4923 121.398 40.3362C121.027 40.2344 120.67 40.0883 120.335 39.9015C120.005 39.7164 119.702 39.4885 119.436 39.2241C119.172 38.9611 118.942 38.6672 118.753 38.3491C118.564 38.0231 118.417 37.6762 118.315 37.316C118.211 36.948 118.158 36.5683 118.157 36.1869C118.161 35.8063 118.21 35.4274 118.303 35.0578C118.4 34.6885 118.543 34.332 118.73 33.9965C118.909 33.665 119.133 33.3576 119.395 33.0819C119.651 32.8026 119.946 32.5594 120.271 32.3593C120.594 32.1548 120.946 31.9969 121.316 31.8908C121.695 31.7792 122.088 31.7221 122.484 31.7214C123.113 31.7145 123.737 31.8158 124.329 32.0206C124.862 32.2062 125.348 32.5018 125.751 32.8869C126.154 33.2719 126.466 33.7373 126.665 34.2505C126.887 34.8204 126.996 35.4256 126.986 36.0345C126.994 36.4158 126.955 36.7968 126.869 37.1692H126.875ZM148.526 38.7725C148.314 39.2105 148.003 39.5965 147.615 39.9015C147.218 40.2131 146.762 40.447 146.272 40.5903C145.734 40.7454 145.175 40.8215 144.614 40.8161C144.362 40.8132 144.112 40.7849 143.866 40.7314C143.598 40.6693 143.317 40.5959 143.043 40.5112C142.769 40.4266 142.494 40.3306 142.237 40.229C141.98 40.1273 141.747 40.0314 141.548 39.941L141.858 37.1635C142.266 37.4017 142.709 37.5787 143.171 37.6885C143.635 37.8043 144.112 37.8631 144.59 37.8636C144.678 37.8636 144.783 37.8636 144.911 37.8636C145.032 37.8595 145.152 37.8405 145.268 37.8071C145.375 37.7771 145.475 37.7251 145.56 37.6547C145.599 37.6176 145.63 37.5727 145.65 37.523C145.671 37.4733 145.679 37.42 145.676 37.3668C145.679 37.286 145.65 37.2072 145.595 37.1466C145.535 37.0824 145.461 37.0321 145.379 36.9998C145.281 36.9597 145.179 36.9294 145.075 36.9095C144.964 36.9095 144.853 36.8756 144.748 36.8643H144.45H144.228C143.854 36.8695 143.482 36.8003 143.136 36.6611C142.817 36.531 142.529 36.3388 142.29 36.0966C142.052 35.8504 141.867 35.5605 141.747 35.2441C141.611 34.9 141.544 34.5341 141.548 34.1658C141.539 33.6727 141.654 33.1847 141.881 32.7432C142.095 32.3286 142.397 31.9629 142.769 31.6706C143.145 31.372 143.574 31.1424 144.036 30.9932C144.515 30.835 145.018 30.7549 145.525 30.756C145.752 30.756 145.986 30.756 146.225 30.7843C146.468 30.7963 146.71 30.8227 146.949 30.8633C147.189 30.9085 147.422 30.9593 147.65 31.0214C147.873 31.0817 148.09 31.161 148.298 31.2585L148.03 33.9908C147.704 33.8869 147.372 33.8002 147.037 33.7311C146.705 33.6647 146.366 33.6307 146.027 33.6295H145.793H145.49C145.384 33.641 145.278 33.6579 145.174 33.6803C145.076 33.6993 144.979 33.7297 144.888 33.7707C144.81 33.807 144.74 33.859 144.684 33.9231C144.637 33.9873 144.612 34.0645 144.614 34.1433C144.615 34.1893 144.626 34.2345 144.646 34.2763C144.666 34.318 144.695 34.3553 144.73 34.386C144.814 34.4496 144.909 34.4975 145.011 34.5271C145.132 34.5628 145.258 34.5855 145.384 34.5949C145.521 34.6032 145.657 34.6032 145.793 34.5949H146.173H146.459C146.805 34.613 147.145 34.6914 147.463 34.8263C147.748 34.9482 148.004 35.125 148.216 35.3457C148.428 35.5687 148.589 35.8322 148.689 36.1191C148.803 36.4349 148.858 36.7673 148.853 37.1014C148.872 37.6754 148.758 38.2463 148.52 38.7725H148.526Z" fill="#E2E4EE"/>
<path d="M82.0725 34.527C81.9357 34.3546 81.7625 34.2122 81.5645 34.1093C81.3378 33.9998 81.0881 33.9419 80.8347 33.9399L80.5544 38.1175C80.8236 38.0806 81.082 37.9902 81.3135 37.8522C81.5364 37.7159 81.7338 37.5441 81.8974 37.3441C82.0617 37.1433 82.1918 36.9184 82.2827 36.6779C82.3722 36.4347 82.4215 36.1795 82.4287 35.9214V35.8198C82.4362 35.5843 82.4106 35.3488 82.3528 35.1198C82.2982 34.9071 82.2032 34.7061 82.0725 34.527Z" fill="#E2E4EE"/>
</g>
<defs>
<clipPath id="clip0_47_466">
<rect width="190" height="44" fill="white"/>
</clipPath>
</defs>
</svg>
