<svg width="140" height="33" viewBox="0 0 140 33" fill="none" xmlns="http://www.w3.org/2000/svg">
<g clip-path="url(#clip0_30_1019)">
<path d="M13.5612 6.0649C13.5734 6.7255 13.4596 7.38261 13.2256 8.00335C13.0115 8.54627 12.6966 9.04674 12.2963 9.48005C11.8996 9.90833 11.4331 10.2709 10.9152 10.5533C10.3707 10.8526 9.79349 11.0926 9.19422 11.2688C8.58391 11.4592 7.95774 11.5984 7.32268 11.6847C6.69104 11.7703 6.05447 11.8176 5.41672 11.8262V17.0758H0C0 15.3536 0 13.6384 0 11.9301C0 10.2247 7.88562e-07 8.49835 0.03442 6.76374C0.03442 5.84444 0.055932 4.92929 0.03442 4.00999C0.012908 3.09069 0.0344197 2.16722 0.0946533 1.23543C2.06199 0.661589 4.10612 0.371454 6.16103 0.374377C6.7634 0.375996 7.36471 0.423283 7.95943 0.515807C8.5473 0.609009 9.1239 0.759522 9.68039 0.965054C10.2187 1.15989 10.7313 1.41541 11.2077 1.72629C11.672 2.02326 12.0845 2.38973 12.4296 2.81198C12.7767 3.2471 13.0497 3.73296 13.2385 4.25125C13.4524 4.83353 13.5616 5.44697 13.5612 6.0649ZM8.39828 6.44759C8.4106 6.23618 8.37588 6.02469 8.29646 5.82735C8.21705 5.63002 8.09479 5.45143 7.93792 5.30366C7.61109 5.01872 7.18154 4.86933 6.74186 4.88769C6.57181 4.88966 6.40214 4.90357 6.23418 4.92929C6.0677 4.95316 5.90257 4.98509 5.7394 5.02497L5.59742 8.31948C5.70128 8.33572 5.80629 8.34406 5.9115 8.34444H6.22987C6.50573 8.34487 6.77951 8.29841 7.03872 8.20717C7.29293 8.11997 7.52791 7.98733 7.73141 7.81615C7.93271 7.65105 8.09799 7.44884 8.21758 7.22131C8.3344 6.97948 8.39042 6.71435 8.38107 6.44759H8.39828Z" fill="#FF7839"/>
<path d="M25.5907 0.648914C25.5419 1.35607 25.4989 2.04936 25.4616 2.72879C25.4229 3.42346 25.3712 4.12231 25.311 4.82947L20.3632 5.07489L20.2471 6.49753H23.7234L23.4653 9.99586L19.9674 10.1082L19.8513 11.7721H24.799C24.7517 12.604 24.7001 13.436 24.6527 14.2388C24.6054 15.0416 24.5581 15.8736 24.5194 16.6931L14.4561 16.9177L14.8304 0.648914H25.5907Z" fill="#FF7839"/>
<path d="M42.3356 0.736278L41.4966 16.0358L35.3829 16.5807L32.1131 8.38604L31.6011 16.7388H26.3479L26.7781 0.736278L32.6122 0.465897L36.6521 8.58988L36.8371 0.919307L42.3356 0.736278Z" fill="#FF7839"/>
<path d="M56.0947 0.782028L55.9785 5.56573L52.5022 5.70301L51.6159 16.4102L46.6896 16.6598L46.7154 5.96092L43.2348 6.14395L43.3768 0.819464L56.0947 0.782028Z" fill="#FF7839"/>
<path d="M89.3264 6.03579C89.3372 6.69664 89.222 7.35376 88.9865 7.97423C88.7731 8.51871 88.4581 9.02066 88.0572 9.4551C87.6592 9.88093 87.1929 10.2419 86.6761 10.5242C86.1384 10.8221 85.5685 11.062 84.9767 11.2396C84.3663 11.4301 83.7402 11.5692 83.1051 11.6556C82.4749 11.741 81.8398 11.7883 81.2034 11.797V17.0549H75.7652C75.7652 15.3328 75.7652 13.6176 75.7652 11.9093C75.7652 10.2011 75.7767 8.47895 75.7996 6.74295C75.7996 5.82365 75.8212 4.90851 75.7996 3.9892C75.7781 3.0699 75.7996 2.14643 75.8599 1.21465C77.8268 0.639452 79.8713 0.35065 81.9262 0.35774C82.5285 0.357949 83.1298 0.403842 83.7247 0.495006C84.3126 0.587673 84.8893 0.738214 85.4456 0.944266C85.9843 1.13828 86.497 1.39383 86.973 1.70549C87.4372 2.00246 87.8497 2.36894 88.1948 2.79119C88.5419 3.22631 88.815 3.71217 89.0037 4.23046C89.2188 4.80956 89.328 5.42046 89.3264 6.03579ZM84.142 6.42681C84.1543 6.2154 84.1196 6.00389 84.0402 5.80655C83.9608 5.60922 83.8385 5.43064 83.6816 5.28288C83.3541 4.99909 82.925 4.84988 82.4856 4.8669C82.3156 4.86743 82.1459 4.87994 81.9779 4.90434C81.8114 4.92821 81.6463 4.96014 81.4831 5.00002L81.3411 8.29453C81.445 8.31077 81.55 8.31911 81.6552 8.31949H81.9736C82.2495 8.32026 82.5233 8.27379 82.7824 8.18222C83.0382 8.09549 83.2746 7.96282 83.4794 7.7912C83.6794 7.62594 83.8432 7.4237 83.9613 7.19636C84.0845 6.95757 84.1465 6.69362 84.142 6.42681Z" fill="#FF7839"/>
<path d="M101.352 0.603165C101.303 1.31032 101.26 2.00361 101.222 2.68304C101.184 3.37771 101.136 4.07655 101.072 4.7837L96.1241 5.02914L96.008 6.45177H99.4843L99.2305 9.95011L95.7283 10.0624L95.6122 11.7263H100.56C100.511 12.5583 100.462 13.3805 100.414 14.1931C100.365 15.0056 100.32 15.8237 100.28 16.6473L90.2213 16.8719L90.5913 0.603165H101.352Z" fill="#FF7839"/>
<path d="M132.458 0.45757L126.435 7.97007L132.811 16.1523L126.163 16.8844L122.614 12.0092L122.429 17.109L117.572 17.2921L117.946 0.00415887L123.384 0.299497L122.954 5.39935L126.572 -0.00831985L132.458 0.45757Z" fill="#FF7839"/>
<path d="M108.571 0.187187L101.58 16.2688C101.558 16.3185 101.549 16.3728 101.554 16.4267C101.559 16.4805 101.577 16.5324 101.608 16.5777C101.638 16.623 101.68 16.6602 101.729 16.6861C101.778 16.7121 101.833 16.7259 101.889 16.7263H115.876C115.932 16.7259 115.987 16.7121 116.037 16.6861C116.086 16.6602 116.127 16.623 116.158 16.5777C116.189 16.5324 116.207 16.4805 116.212 16.4267C116.217 16.3728 116.208 16.3185 116.186 16.2688L109.195 0.187187C109.169 0.128351 109.125 0.0782495 109.07 0.0430532C109.014 0.0078569 108.949 -0.0108986 108.883 -0.0108986C108.817 -0.0108986 108.752 0.0078569 108.696 0.0430532C108.641 0.0782495 108.597 0.128351 108.571 0.187187Z" fill="#FF7839"/>
<path d="M61.3048 0.187187L54.3092 16.2688C54.2871 16.3189 54.2782 16.3735 54.2833 16.4277C54.2884 16.4819 54.3074 16.5341 54.3386 16.5794C54.3697 16.6248 54.412 16.662 54.4617 16.6876C54.5114 16.7133 54.5669 16.7266 54.6232 16.7263H68.606C68.6623 16.7266 68.7178 16.7133 68.7675 16.6876C68.8172 16.662 68.8595 16.6248 68.8907 16.5794C68.9218 16.5341 68.9408 16.4819 68.9459 16.4277C68.9511 16.3735 68.9422 16.3189 68.9201 16.2688L61.9244 0.187187C61.8989 0.128058 61.8559 0.0775443 61.8008 0.0420121C61.7456 0.00647996 61.6809 -0.0124855 61.6146 -0.0124855C61.5484 -0.0124855 61.4836 0.00647996 61.4285 0.0420121C61.3733 0.0775443 61.3303 0.128058 61.3048 0.187187Z" fill="#FF7839"/>
<path d="M91.0602 25.8736C90.9773 25.7698 90.8734 25.6835 90.7548 25.6199C90.6224 25.5524 90.4741 25.5194 90.3245 25.5242C90.1767 25.5229 90.0302 25.5513 89.8943 25.6074C89.7714 25.6629 89.6616 25.7422 89.5716 25.8403C89.4771 25.9383 89.4052 26.0546 89.3608 26.1814C89.3136 26.3153 89.2903 26.456 89.2919 26.5974C89.2908 26.7382 89.3111 26.8783 89.3522 27.0134C89.3908 27.1489 89.4534 27.277 89.5372 27.3919C89.6171 27.5028 89.7214 27.5951 89.8427 27.6623C89.9731 27.7355 90.1222 27.7715 90.2729 27.7663C90.4178 27.7685 90.5613 27.7395 90.6931 27.6812C90.8249 27.6229 90.9415 27.5368 91.0344 27.4294C91.1264 27.3225 91.1965 27.1997 91.2409 27.0675C91.2873 26.9334 91.3106 26.7929 91.3098 26.6515C91.3128 26.5103 91.2909 26.3696 91.2452 26.2355C91.2079 26.1046 91.1451 25.9818 91.0602 25.8736Z" fill="#FF7839"/>
<path d="M134.05 20.9859H0.30547L0.374309 32.421L140 31.1731L134.05 20.9859ZM12.7609 28.5691C12.6051 28.8908 12.3774 29.175 12.094 29.4011C11.7992 29.6299 11.4619 29.8021 11.1002 29.9086C10.7052 30.0226 10.2948 30.0787 9.88261 30.075C9.69586 30.0729 9.50985 30.052 9.3276 30.0126C9.12969 29.9654 8.92748 29.9113 8.72096 29.8503C8.51445 29.7838 8.31653 29.7172 8.12723 29.6423C7.93792 29.5675 7.77013 29.4967 7.61954 29.4302L7.84757 27.3836C8.14892 27.5577 8.47508 27.688 8.81561 27.7705C9.15712 27.8557 9.50838 27.899 9.8611 27.8994C9.92563 27.8994 10.0031 27.8994 10.0977 27.8994C10.1867 27.8964 10.2749 27.8824 10.3602 27.8578C10.4394 27.8357 10.5127 27.7974 10.5753 27.7455C10.6045 27.7182 10.6273 27.6851 10.6422 27.6485C10.657 27.6119 10.6635 27.5726 10.6613 27.5333C10.6635 27.4738 10.6419 27.4158 10.6011 27.3711C10.5573 27.3238 10.5028 27.2868 10.4419 27.263C10.3704 27.2322 10.2952 27.2099 10.2182 27.1964C10.1385 27.1812 10.0581 27.1701 9.97726 27.1631H9.75784H9.59435C9.31839 27.1669 9.04457 27.116 8.7898 27.0134C8.55525 26.9185 8.34412 26.7768 8.17025 26.5974C7.99194 26.4173 7.85423 26.2035 7.76583 25.9693C7.65434 25.6713 7.60566 25.3547 7.62265 25.0382C7.63965 24.7218 7.72198 24.4118 7.86478 24.1265C8.02208 23.821 8.24504 23.5516 8.51875 23.3362C8.79746 23.1161 9.11528 22.947 9.45667 22.837C9.80838 22.7205 10.1777 22.6614 10.5495 22.6623C10.7173 22.6623 10.8894 22.6623 11.0658 22.6831C11.2447 22.692 11.4228 22.7114 11.5993 22.7413C11.7757 22.7746 11.9478 22.812 12.1156 22.8578C12.2798 22.9022 12.4396 22.9607 12.5931 23.0325L12.3995 25.0458C12.1579 24.9698 11.9123 24.9059 11.6638 24.8545C11.4189 24.8055 11.1696 24.7804 10.9195 24.7796H10.7474H10.5237C10.4505 24.7796 10.3688 24.7796 10.2913 24.817C10.2188 24.8317 10.1481 24.854 10.0805 24.8836C10.0233 24.9093 9.97315 24.9478 9.93424 24.9959C9.89574 25.0414 9.87721 25.0996 9.88261 25.1581C9.88201 25.1919 9.88901 25.2254 9.90313 25.2563C9.91724 25.2872 9.93813 25.3147 9.96435 25.337C10.0264 25.3831 10.0963 25.4183 10.1709 25.441C10.262 25.4671 10.3557 25.4839 10.4505 25.4909C10.5494 25.4971 10.6485 25.4971 10.7474 25.4909H11.027H11.2379C11.4931 25.5043 11.7438 25.562 11.9779 25.6615C12.1878 25.7513 12.3767 25.8815 12.5329 26.0442C12.6905 26.2074 12.8095 26.4018 12.8814 26.614C12.9648 26.8467 13.0056 27.0916 13.0018 27.3378C13.0192 27.7606 12.9369 28.1817 12.7609 28.5691ZM29.11 25.0292L27.5784 25.0874L27.1869 29.7963L25.0357 29.9044V25.1956L23.504 25.2746L23.5685 22.9327H29.1616L29.11 25.0292ZM46.0701 25.312C46.0443 25.6032 46.0055 25.9111 45.9496 26.223C45.8937 26.535 45.8248 26.8553 45.7388 27.1798C45.6512 27.497 45.542 27.8083 45.4118 28.1116C45.2847 28.401 45.1321 28.6793 44.9557 28.9435C44.7908 29.1947 44.591 29.4228 44.362 29.6215C44.1406 29.8154 43.8858 29.9703 43.6091 30.0791C43.3153 30.1936 43.0008 30.2501 42.6841 30.2455C42.3292 30.2526 41.9766 30.1903 41.6472 30.0625C41.3644 29.9443 41.1085 29.7733 40.8943 29.5591C40.6827 29.3428 40.5097 29.094 40.3823 28.8229C40.2475 28.5383 40.1423 28.2415 40.0682 27.9368C39.9943 27.6203 39.9426 27.2992 39.9133 26.9759C39.8832 26.6515 39.8703 26.3395 39.8703 26.0359C39.8703 25.5741 39.8918 25.1082 39.9392 24.6465C39.9865 24.1848 40.0553 23.7272 40.1457 23.2655L42.5507 23.3528C42.4561 23.8728 42.3786 24.3969 42.3098 24.921C42.2445 25.4456 42.2115 25.9734 42.2108 26.5017C42.2108 26.56 42.2108 26.6432 42.2108 26.7555C42.2108 26.8678 42.2108 26.9884 42.2366 27.1257C42.2624 27.263 42.2711 27.4044 42.2969 27.5417C42.3195 27.6751 42.3555 27.806 42.4044 27.9327C42.4406 28.0388 42.4944 28.1386 42.5636 28.228C42.5894 28.2621 42.6231 28.29 42.6619 28.3095C42.7007 28.329 42.7436 28.3395 42.7873 28.3403C42.8397 28.3389 42.8911 28.3258 42.9374 28.3019C42.9836 28.2781 43.0236 28.2443 43.0541 28.2031C43.1459 28.0954 43.2173 27.9729 43.2649 27.8412C43.3287 27.6686 43.3804 27.4921 43.4198 27.3129C43.4628 27.1132 43.5015 26.8969 43.5317 26.6931C43.5618 26.4893 43.5876 26.2771 43.6091 26.0483C43.6306 25.8195 43.6435 25.6324 43.6521 25.4452C43.6607 25.258 43.6736 25.0957 43.6779 24.9543C43.6822 24.8129 43.6779 24.7089 43.6779 24.6382C43.6779 24.3803 43.6779 24.1224 43.6779 23.8645C43.6779 23.6107 43.6779 23.3528 43.6392 23.0991H46.0443C46.083 23.5566 46.1045 24.0184 46.1045 24.4884C46.1002 24.7297 46.0873 25.0167 46.0658 25.312H46.0701ZM62.6687 27.3337C62.45 28.0357 61.9959 28.6474 61.378 29.0725C61.0684 29.2857 60.7314 29.4591 60.3755 29.5883C60.0007 29.7241 59.6131 29.8244 59.2182 29.8878C58.8012 29.9513 58.3797 29.9833 57.9576 29.9834C57.7941 29.9834 57.6392 29.9834 57.4843 29.9834L57.0111 29.946L57.153 23.2904C57.5327 23.1729 57.9231 23.0907 58.319 23.045C58.7128 22.9967 59.1095 22.9731 59.5065 22.9743C59.966 22.9696 60.423 23.0414 60.8574 23.1864C61.2519 23.3182 61.6138 23.5279 61.9201 23.8021C62.2228 24.077 62.4605 24.4119 62.6171 24.7838C62.7882 25.2034 62.873 25.6513 62.8666 26.1024C62.8636 26.5203 62.7954 26.9354 62.6644 27.3337H62.6687ZM75.8857 29.7963L73.7345 29.9044V23.1698L76.4665 23.0325L75.8857 29.7963ZM93.4868 27.3878C93.4205 27.6621 93.3163 27.9265 93.177 28.174C93.0445 28.4182 92.8796 28.6447 92.6865 28.8478C92.494 29.0503 92.274 29.2266 92.0326 29.372C91.6497 29.5973 91.2231 29.7446 90.7792 29.8046C90.3353 29.8647 89.8833 29.8364 89.4511 29.7214C89.1774 29.6463 88.9144 29.5387 88.6681 29.4011C88.4247 29.2647 88.2018 29.0967 88.0055 28.9019C87.8106 28.7081 87.6415 28.4915 87.5022 28.2572C87.3631 28.017 87.2548 27.7613 87.1795 27.4959C87.103 27.2248 87.0639 26.945 87.0633 26.664C87.0657 26.3836 87.1018 26.1044 87.1709 25.832C87.242 25.5599 87.3475 25.2972 87.4849 25.05C87.6175 24.8057 87.7824 24.5792 87.9754 24.3761C88.1637 24.1703 88.3809 23.9911 88.6208 23.8437C88.8587 23.6929 89.1182 23.5766 89.3909 23.4984C89.6698 23.4162 89.9598 23.3741 90.2514 23.3736C90.7145 23.3685 91.1749 23.4432 91.6109 23.5941C92.0039 23.7308 92.3614 23.9486 92.6586 24.2324C92.9558 24.5161 93.1855 24.859 93.3319 25.2372C93.4954 25.6571 93.5757 26.103 93.5685 26.5517C93.5744 26.8327 93.5455 27.1134 93.4825 27.3878H93.4868ZM109.44 28.5691C109.284 28.8919 109.055 29.1763 108.769 29.4011C108.476 29.6306 108.14 29.803 107.779 29.9086C107.383 30.0229 106.971 30.079 106.557 30.075C106.372 30.0729 106.188 30.052 106.007 30.0126C105.809 29.9668 105.602 29.9127 105.4 29.8503C105.198 29.7879 104.996 29.7172 104.806 29.6423C104.617 29.5675 104.445 29.4967 104.299 29.4302L104.527 27.3836C104.827 27.5591 105.154 27.6895 105.495 27.7705C105.836 27.8557 106.188 27.899 106.54 27.8994C106.605 27.8994 106.682 27.8994 106.777 27.8994C106.866 27.8964 106.954 27.8824 107.039 27.8578C107.119 27.8357 107.192 27.7974 107.254 27.7455C107.284 27.7182 107.306 27.6851 107.321 27.6485C107.336 27.6119 107.343 27.5726 107.341 27.5333C107.343 27.4738 107.321 27.4158 107.28 27.3711C107.236 27.3238 107.182 27.2868 107.121 27.263C107.049 27.2334 106.974 27.2111 106.897 27.1964C106.816 27.1964 106.734 27.1715 106.656 27.1631H106.437H106.274C105.998 27.1669 105.724 27.116 105.469 27.0134C105.234 26.9175 105.021 26.7759 104.845 26.5974C104.67 26.416 104.534 26.2025 104.445 25.9693C104.345 25.7157 104.295 25.4462 104.299 25.1748C104.292 24.8114 104.376 24.4518 104.544 24.1265C104.701 23.821 104.924 23.5516 105.198 23.3362C105.475 23.1162 105.791 22.947 106.132 22.837C106.485 22.7205 106.855 22.6615 107.229 22.6623C107.396 22.6623 107.569 22.6623 107.745 22.6831C107.924 22.692 108.102 22.7114 108.278 22.7413C108.455 22.7746 108.627 22.812 108.795 22.8578C108.959 22.9022 109.119 22.9607 109.272 23.0325L109.074 25.0458C108.834 24.9693 108.59 24.9054 108.343 24.8545C108.098 24.8055 107.849 24.7804 107.599 24.7796H107.427H107.203C107.125 24.788 107.047 24.8005 106.971 24.817C106.898 24.831 106.827 24.8534 106.76 24.8836C106.702 24.9104 106.651 24.9487 106.609 24.9959C106.574 25.0432 106.556 25.1001 106.557 25.1581C106.558 25.192 106.567 25.2254 106.581 25.2561C106.596 25.2869 106.617 25.3144 106.644 25.337C106.705 25.3839 106.775 25.4192 106.85 25.441C106.94 25.4672 107.032 25.484 107.125 25.4909C107.226 25.497 107.326 25.497 107.427 25.4909H107.706H107.917C108.172 25.5043 108.423 25.562 108.657 25.6615C108.867 25.7513 109.056 25.8815 109.212 26.0442C109.368 26.2084 109.487 26.4026 109.561 26.614C109.644 26.8467 109.685 27.0916 109.681 27.3378C109.695 27.7608 109.611 28.1814 109.436 28.5691H109.44Z" fill="#FF7839"/>
<path d="M60.4745 25.441C60.3737 25.3139 60.2461 25.209 60.1002 25.1332C59.9331 25.0525 59.7491 25.0099 59.5624 25.0084L59.3559 28.0866C59.5542 28.0594 59.7447 27.9928 59.9152 27.8911C60.0794 27.7907 60.2249 27.6641 60.3454 27.5167C60.4665 27.3688 60.5624 27.203 60.6294 27.0259C60.6953 26.8467 60.7316 26.6586 60.7369 26.4685V26.3936C60.7424 26.22 60.7236 26.0465 60.681 25.8778C60.6408 25.7211 60.5707 25.5729 60.4745 25.441Z" fill="#FF7839"/>
</g>
<defs>
<clipPath id="clip0_30_1019">
<rect width="140" height="32.4211" fill="white"/>
</clipPath>
</defs>
</svg>
